<svg width="24" height="24" viewBox="0 0 24 24" fill="none" xmlns="http://www.w3.org/2000/svg">
<path d="M24 12C24 18.629 18.629 24 12 24C5.37097 24 0 18.629 0 12C0 5.37097 5.37097 0 12 0C18.629 0 24 5.37097 24 12ZM12 1.54839C6.25645 1.54839 1.54839 6.19839 1.54839 12C1.54839 17.7435 6.19839 22.4516 12 22.4516C17.7435 22.4516 22.4516 17.8016 22.4516 12C22.4516 6.25645 17.8016 1.54839 12 1.54839ZM11.3952 6.02419L5.82581 11.5887C5.59839 11.8161 5.59839 12.1839 5.82581 12.4113L11.3952 17.9758C11.6226 18.2032 11.9903 18.2032 12.2177 17.9758L12.5516 17.6419C12.779 17.4145 12.779 17.0371 12.5419 16.8145L8.4 12.8226H17.6129C17.9323 12.8226 18.1935 12.5613 18.1935 12.2419V11.7581C18.1935 11.4387 17.9323 11.1774 17.6129 11.1774H8.40484L12.5468 7.18548C12.779 6.95806 12.7839 6.58548 12.5565 6.35806L12.2226 6.02419C11.9903 5.79677 11.6226 5.79677 11.3952 6.02419Z" fill="white"/>
</svg>
