<svg width="24" height="24" viewBox="0 0 24 24" fill="none" xmlns="http://www.w3.org/2000/svg">
<path d="M0 12C0 18.629 5.37097 24 12 24C18.629 24 24 18.629 24 12C24 5.37097 18.629 0 12 0C5.37097 0 0 5.37097 0 12ZM12 1.54839C17.7435 1.54839 22.4516 6.19839 22.4516 12C22.4516 17.7435 17.8016 22.4516 12 22.4516C6.25645 22.4516 1.54839 17.8016 1.54839 12C1.54839 6.25645 6.19839 1.54839 12 1.54839ZM12.6048 6.02419L18.1742 11.5887C18.4016 11.8161 18.4016 12.1839 18.1742 12.4113L12.6048 17.9758C12.3774 18.2032 12.0097 18.2032 11.7823 17.9758L11.4484 17.6419C11.221 17.4145 11.221 17.0371 11.4581 16.8145L15.6 12.8226H6.3871C6.06774 12.8226 5.80645 12.5613 5.80645 12.2419V11.7581C5.80645 11.4387 6.06774 11.1774 6.3871 11.1774H15.5952L11.4532 7.18548C11.221 6.95806 11.2161 6.58548 11.4435 6.35806L11.7774 6.02419C12.0097 5.79677 12.3774 5.79677 12.6048 6.02419Z" fill="white"/>
</svg>
