<svg width="36" height="36" viewBox="0 0 36 36" fill="none" xmlns="http://www.w3.org/2000/svg">
<path d="M24.6752 13.4264L24.6771 13.4245C25.0875 13.0051 25.0875 12.3288 24.6771 11.9094L24.6752 11.9075L24.0925 11.3248C23.6727 10.905 22.9934 10.905 22.5736 11.3248L18 15.8985L13.4264 11.3248C13.0066 10.905 12.3273 10.905 11.9075 11.3248L11.3248 11.9075C10.905 12.3273 10.905 13.0066 11.3248 13.4264L15.8985 18L11.3248 22.5736C10.905 22.9934 10.905 23.6727 11.3248 24.0925L11.9075 24.6752C12.3273 25.095 13.0066 25.095 13.4264 24.6752L18 20.1015L22.5736 24.6752C22.9934 25.095 23.6727 25.095 24.0925 24.6752L24.6752 24.0925C25.095 23.6727 25.095 22.9934 24.6752 22.5736L20.1015 18L24.6752 13.4264ZM18 0.75C8.4708 0.75 0.75 8.4708 0.75 18C0.75 27.5292 8.4708 35.25 18 35.25C27.5292 35.25 35.25 27.5292 35.25 18C35.25 8.4708 27.5292 0.75 18 0.75ZM18 32.5565C10.0005 32.5565 3.44355 26.08 3.44355 18C3.44355 10.0005 9.92002 3.44355 18 3.44355C25.9995 3.44355 32.5565 9.92002 32.5565 18C32.5565 25.9995 26.08 32.5565 18 32.5565Z" fill="#001233" stroke="#001233" stroke-width="0.5"/>
</svg>
