<svg width="16" height="17" viewBox="0 0 16 17" fill="none" xmlns="http://www.w3.org/2000/svg">
<path d="M11.3956 0H4.34337C3.19182 0.00127129 2.08779 0.468596 1.27352 1.29944C0.459249 2.13028 0.00124593 3.25677 0 4.43176L0 11.6275C0.00124593 12.8025 0.459249 13.929 1.27352 14.7598C2.08779 15.5907 3.19182 16.058 4.34337 16.0593H11.3956C12.5471 16.0578 13.651 15.5905 14.4653 14.7597C15.2795 13.9289 15.7376 12.8024 15.739 11.6275V4.43176C15.7377 3.25677 15.2797 2.13028 14.4654 1.29944C13.6512 0.468596 12.5471 0.00127129 11.3956 0V0ZM14.3428 11.6275C14.342 12.4248 14.0312 13.1892 13.4787 13.753C12.9262 14.3168 12.177 14.6339 11.3956 14.6346H4.34337C3.56197 14.6339 2.8128 14.3168 2.26027 13.753C1.70774 13.1892 1.39699 12.4248 1.39621 11.6275V4.43176C1.39699 3.63446 1.70774 2.87004 2.26027 2.30627C2.8128 1.74249 3.56197 1.42542 4.34337 1.42462H11.3956C12.1769 1.42558 12.926 1.7427 13.4785 2.30644C14.031 2.87019 14.3418 3.63451 14.3428 4.43176V11.6275Z" fill="white"/>
<path d="M7.8695 3.89204C7.06736 3.89204 6.28325 4.13474 5.6163 4.58945C4.94935 5.04416 4.42953 5.69046 4.12256 6.44662C3.8156 7.20277 3.73528 8.03482 3.89177 8.83755C4.04826 9.64028 4.43452 10.3776 5.00172 10.9564C5.56891 11.5351 6.29156 11.9292 7.07828 12.0889C7.865 12.2486 8.68045 12.1666 9.42153 11.8534C10.1626 11.5402 10.796 11.0098 11.2416 10.3293C11.6873 9.64877 11.9251 8.84869 11.9251 8.03023C11.9241 6.93306 11.4964 5.88114 10.7361 5.10532C9.97573 4.3295 8.94479 3.89316 7.8695 3.89204ZM7.8695 10.7432C7.34362 10.7432 6.82956 10.5841 6.39232 10.286C5.95507 9.98788 5.61428 9.56417 5.41303 9.06844C5.21179 8.57271 5.15914 8.02722 5.26173 7.50096C5.36432 6.9747 5.61755 6.49129 5.9894 6.11187C6.36125 5.73246 6.83501 5.47408 7.35078 5.3694C7.86655 5.26471 8.40115 5.31844 8.887 5.52378C9.37284 5.72912 9.7881 6.07684 10.0803 6.52299C10.3724 6.96913 10.5284 7.49366 10.5284 8.03023C10.5276 8.74951 10.2472 9.4391 9.74873 9.94771C9.25027 10.4563 8.57443 10.7424 7.8695 10.7432Z" fill="white"/>
<path d="M12.0959 2.68356C11.8591 2.68374 11.6296 2.7677 11.4466 2.92114C11.2636 3.07458 11.1385 3.28801 11.0924 3.52507C11.0464 3.76212 11.0823 4.00813 11.1941 4.22119C11.3059 4.43424 11.4866 4.60116 11.7055 4.6935C11.9243 4.78584 12.1678 4.7979 12.3944 4.72761C12.621 4.65732 12.8167 4.50904 12.9482 4.30802C13.0797 4.10701 13.1388 3.8657 13.1154 3.62521C13.0921 3.38473 12.9877 3.15993 12.8202 2.98914C12.6278 2.79368 12.3674 2.68382 12.0959 2.68356Z" fill="white"/>
</svg>
