<svg width="15" height="15" viewBox="0 0 15 15" fill="none" xmlns="http://www.w3.org/2000/svg">
<path d="M1.97618 3.84485e-06C1.71763 -0.000512467 1.46151 0.0509764 1.22248 0.151527C0.983441 0.252077 0.766172 0.399717 0.583095 0.586004C0.39839 0.770533 0.251669 0.990846 0.15154 1.23402C0.0514119 1.47719 -0.00010603 1.73831 9.70794e-06 2.00207C-0.00081773 2.2704 0.0512567 2.53615 0.153135 2.78352C0.255013 3.03089 0.404614 3.25483 0.593037 3.44201C0.772983 3.62356 0.986308 3.76705 1.22076 3.86423C1.45521 3.96142 1.70617 4.01038 1.95922 4.00832H2.00192C2.51737 3.99648 3.00759 3.77835 3.36683 3.40099C3.72606 3.02363 3.9255 2.5173 3.92213 1.99124C3.91875 1.46518 3.71282 0.961558 3.34877 0.589036C2.98473 0.216514 2.49174 0.00495534 1.97618 3.84485e-06Z" fill="white"/>
<path d="M2.9434 4.50887H0.960212C0.767966 4.51232 0.584878 4.59328 0.450961 4.73406C0.317044 4.87484 0.243189 5.06399 0.245538 5.26017V14.018C0.248269 14.216 0.326715 14.4052 0.464152 14.5451C0.601589 14.685 0.787145 14.7645 0.981266 14.7669H2.9434C3.13549 14.7665 3.31985 14.6896 3.45725 14.5526C3.59465 14.4157 3.67426 14.2294 3.67913 14.0335V5.26017C3.67671 5.06178 3.59843 4.87221 3.461 4.73186C3.32356 4.59151 3.13783 4.5115 2.9434 4.50887Z" fill="white"/>
<path d="M11.3149 4.25895H10.7979C10.336 4.2567 9.87884 4.35318 9.45578 4.5422C9.03271 4.73121 8.65315 5.00855 8.34153 5.35635V5.00965C8.33208 4.88006 8.27734 4.75824 8.18729 4.66636C8.09724 4.57447 7.97785 4.51863 7.85085 4.50898H5.39803C5.27384 4.51162 5.15501 4.56106 5.06441 4.64777C4.97381 4.73448 4.91787 4.85233 4.90735 4.97862V14.3164C4.91759 14.4412 4.97402 14.5573 5.06518 14.6411C5.15633 14.7249 5.27536 14.7701 5.39803 14.7676H8.09589C8.21861 14.7703 8.33771 14.7251 8.4289 14.6413C8.52008 14.5574 8.57648 14.4412 8.58658 14.3164V8.92189C8.57518 8.63779 8.64841 8.35684 8.7966 8.11604C8.94479 7.87525 9.161 7.68592 9.41674 7.57299C9.67248 7.46006 9.95576 7.42883 10.2292 7.48342C10.5027 7.538 10.7536 7.67584 10.9487 7.87878C11.0688 8.01753 11.1603 8.17958 11.2175 8.35522C11.2748 8.53086 11.2968 8.71649 11.2821 8.901V14.2717C11.2914 14.4013 11.3461 14.5232 11.4362 14.6151C11.5263 14.707 11.6457 14.7628 11.7728 14.7723H14.2239C14.3509 14.7628 14.4703 14.707 14.5604 14.6151C14.6505 14.5232 14.7052 14.4013 14.7145 14.2717V7.81015C14.7246 7.34792 14.6441 6.88831 14.4778 6.45822C14.3115 6.02814 14.0628 5.63624 13.7462 5.30551C13.4295 4.97477 13.0514 4.71184 12.6339 4.53213C12.2164 4.35243 11.768 4.25955 11.3149 4.25895Z" fill="white"/>
</svg>
