<svg width="99" height="22" viewBox="0 0 99 22" fill="none" xmlns="http://www.w3.org/2000/svg">
<path d="M3.10254 13.3462V21H0.258301V2.15234H3.48096C5.05973 2.15234 6.25195 2.26221 7.05762 2.48193C7.87142 2.70166 8.58757 3.1167 9.20605 3.72705C10.2884 4.78499 10.8296 6.11963 10.8296 7.73096C10.8296 9.45622 10.2518 10.8234 9.09619 11.8325C7.94059 12.8416 6.38216 13.3462 4.4209 13.3462H3.10254ZM3.10254 10.7095H4.16455C6.77686 10.7095 8.08301 9.70443 8.08301 7.69434C8.08301 5.74935 6.73617 4.77686 4.04248 4.77686H3.10254V10.7095ZM21.5654 9.11035H24.3242V21H21.5654V19.7549C20.4342 20.8128 19.2176 21.3418 17.9155 21.3418C16.2716 21.3418 14.9126 20.7477 13.8384 19.5596C12.7723 18.347 12.2393 16.8333 12.2393 15.0186C12.2393 13.2363 12.7723 11.7511 13.8384 10.563C14.9045 9.37484 16.2391 8.78076 17.8423 8.78076C19.2257 8.78076 20.4668 9.35042 21.5654 10.4897V9.11035ZM15.0469 15.0186C15.0469 16.1579 15.3521 17.0856 15.9624 17.8018C16.589 18.526 17.3784 18.8882 18.3306 18.8882C19.3478 18.8882 20.1698 18.5382 20.7964 17.8384C21.423 17.1141 21.7363 16.1945 21.7363 15.0796C21.7363 13.9647 21.423 13.0451 20.7964 12.3208C20.1698 11.6128 19.356 11.2588 18.355 11.2588C17.411 11.2588 16.6216 11.6169 15.9868 12.333C15.3602 13.0573 15.0469 13.9525 15.0469 15.0186ZM30.7876 9.11035V21H28.041V9.11035H30.7876ZM27.626 4.1665C27.626 3.68636 27.8009 3.27132 28.1509 2.92139C28.5008 2.57145 28.9199 2.39648 29.4082 2.39648C29.9046 2.39648 30.3278 2.57145 30.6777 2.92139C31.0277 3.26318 31.2026 3.68229 31.2026 4.17871C31.2026 4.67513 31.0277 5.09831 30.6777 5.44824C30.3359 5.79818 29.9168 5.97314 29.4204 5.97314C28.924 5.97314 28.5008 5.79818 28.1509 5.44824C27.8009 5.09831 27.626 4.67106 27.626 4.1665ZM34.5166 9.11035H37.2754V10.209C38.2357 9.25684 39.318 8.78076 40.5225 8.78076C41.9059 8.78076 42.9842 9.21615 43.7573 10.0869C44.4246 10.8275 44.7583 12.036 44.7583 13.7124V21H41.9995V14.3594C41.9995 13.1875 41.8368 12.3778 41.5112 11.9302C41.1938 11.4744 40.616 11.2466 39.7778 11.2466C38.8664 11.2466 38.2194 11.5477 37.8369 12.1499C37.4626 12.744 37.2754 13.7816 37.2754 15.2627V21H34.5166V9.11035ZM51.3193 11.6738V21H48.5728V11.6738H47.4009V9.11035H48.5728V4.75244H51.3193V9.11035H53.4556V11.6738H51.3193ZM57.0625 9.11035L60.1753 15.8975L63.5322 8.02393L66.9136 15.8975L69.9897 9.11035H73.0659L66.8403 21.8911L63.5322 14.2373L60.1875 21.8911L53.9741 9.11035H57.0625ZM85.6206 15.7021H77.1001C77.1733 16.6787 77.4907 17.4559 78.0522 18.0337C78.6138 18.6034 79.334 18.8882 80.2129 18.8882C80.8965 18.8882 81.4621 18.7254 81.9097 18.3999C82.3491 18.0744 82.8496 17.4722 83.4111 16.5933L85.7305 17.8872C85.3724 18.4976 84.994 19.0225 84.5952 19.4619C84.1965 19.8932 83.7692 20.2513 83.3135 20.5361C82.8577 20.8128 82.3654 21.0163 81.8364 21.1465C81.3075 21.2767 80.7337 21.3418 80.1152 21.3418C78.3411 21.3418 76.917 20.7721 75.8428 19.6328C74.7686 18.4854 74.2314 16.9635 74.2314 15.0674C74.2314 13.1875 74.7523 11.6657 75.7939 10.502C76.8438 9.35449 78.2354 8.78076 79.9688 8.78076C81.7184 8.78076 83.1019 9.33822 84.1191 10.4531C85.1283 11.5599 85.6328 13.0939 85.6328 15.0552L85.6206 15.7021ZM82.8008 13.4561C82.4183 11.9912 81.4946 11.2588 80.0298 11.2588C79.6961 11.2588 79.3828 11.3117 79.0898 11.4175C78.7969 11.5151 78.5283 11.6616 78.2842 11.8569C78.0482 12.0441 77.8447 12.272 77.6738 12.5405C77.5029 12.8091 77.3727 13.1143 77.2832 13.4561H82.8008ZM91.6323 0.382324V21H88.8857V0.382324H91.6323ZM98.1079 0.382324V21H95.3613V0.382324H98.1079Z" fill="#2B2B2B"/>
</svg>
