<svg width="107" height="107" viewBox="0 0 107 107" fill="none" xmlns="http://www.w3.org/2000/svg">
<path d="M53.5 0C23.9456 0 0 23.9456 0 53.5C0 83.0544 23.9456 107 53.5 107C83.0544 107 107 83.0544 107 53.5C107 23.9456 83.0544 0 53.5 0ZM84.5645 59.5403C84.5645 60.9641 83.3996 62.129 81.9758 62.129H62.129V81.9758C62.129 83.3996 60.9641 84.5645 59.5403 84.5645H47.4597C46.0359 84.5645 44.871 83.3996 44.871 81.9758V62.129H25.0242C23.6004 62.129 22.4355 60.9641 22.4355 59.5403V47.4597C22.4355 46.0359 23.6004 44.871 25.0242 44.871H44.871V25.0242C44.871 23.6004 46.0359 22.4355 47.4597 22.4355H59.5403C60.9641 22.4355 62.129 23.6004 62.129 25.0242V44.871H81.9758C83.3996 44.871 84.5645 46.0359 84.5645 47.4597V59.5403Z" fill="#001233"/>
</svg>
